<?xml version="1.0" encoding="utf-8"?>
<!-- Generator: Adobe Illustrator 18.0.0, SVG Export Plug-In . SVG Version: 6.00 Build 0)  -->
<!DOCTYPE svg PUBLIC "-//W3C//DTD SVG 1.1//EN" "http://www.w3.org/Graphics/SVG/1.1/DTD/svg11.dtd">
<svg version="1.1" xmlns="http://www.w3.org/2000/svg" xmlns:xlink="http://www.w3.org/1999/xlink" x="0px" y="0px"
	 viewBox="0 621.2 1728 1728" enable-background="new 0 621.2 1728 1728" xml:space="preserve">
<g id="cloud-assets" display="none">
	<path display="inline" opacity="0.5" fill="#607D8B" enable-background="new    " d="M1372.1,946.1H371.3
		c-61.6,0-111.2,49.6-111.2,111.2v667.2c0,61.6,49.6,111.2,111.2,111.2h388.4V1947H650.1v111.2H1095V1947H983.8v-111.2h388.4
		c61.6,0,111.2-49.6,111.2-111.2v-667.2C1483.3,997.5,1433.7,946.1,1372.1,946.1z M1372.1,1724.6H371.3v-667.2h1000.9V1724.6z"/>
</g>
<g id="cloud-backup" display="none">
	<path display="inline" opacity="0.5" fill="#607D8B" enable-background="new    " d="M927.8,1059.2c-229.3,0-414,184.8-414,414
		H375.2L560,1656.3l184.8-184.8H606.2c0-177.9,143.7-321.6,321.6-321.6s321.6,143.7,321.6,321.6s-143.7,321.6-321.6,321.6
		c-70.1,0-133.4-22.2-186.5-59.9l-65,66.7c70.1,53,157.4,85.5,251.5,85.5c229.3,0,414-184.8,414-414S1155.4,1059.2,927.8,1059.2z"/>
</g>
<g id="cloud-database-backup" display="none">
	<path display="inline" opacity="0.5" fill="#607D8B" d="M1470.2,874.4H246.9l0,0V2096l0,0h1223.3l0,0V874.4L1470.2,874.4z
		 M927.8,1885.6c-94.1,0-181.4-32.5-251.5-85.5l65-66.7c53,37.6,116.3,59.9,186.5,59.9c177.9,0,321.6-143.7,321.6-321.6
		s-143.7-321.6-321.6-321.6s-321.6,143.7-321.6,321.6h138.6L560,1656.3l-184.8-183.1h138.6c0-229.3,184.8-414,414-414
		c227.5,0,414,183.1,414,412.3S1157.1,1885.6,927.8,1885.6z"/>
</g>
<g id="cloud-database" display="none">
	<g display="inline" opacity="0.5">
		<g>
			<path id="SVGID_1_" fill="#607D8B" d="M926.1,1553.6h203.6v203.6H926.1V1553.6z M926.1,1214.9h203.6v203.6H926.1V1214.9z
				 M587.4,1553.6H791v203.6H587.4V1553.6z M587.4,1214.9H791v203.6H587.4V1214.9z M450.5,1079.7v814.4h814.4v-814.4H450.5z
				 M246.9,874.4h1223.3V2096H246.9V874.4z"/>
		</g>
	</g>
</g>
<g id="cloud-local" display="none">
	<g display="inline" opacity="0.5">
		<g>
			<path id="SVGID_2_" opacity="0.59" fill="#607D8B" enable-background="new    " d="M859.6,1417.6c-37.6,0-68.4-30.8-68.4-68.4
				s30.8-68.4,68.4-68.4c37.6,0,68.4,30.8,68.4,68.4S897.2,1417.6,859.6,1417.6z M587.5,1893.2c0,37.6,30.8,68.4,68.4,68.4h408.9
				c37.6,0,68.4-30.8,68.4-68.4s-30.8-68.4-68.4-68.4H656C618.3,1824.8,587.5,1855.6,587.5,1893.2z M859.6,1689.6
				c188.2,0,340.5-152.3,340.5-340.5s-152.3-340.5-340.5-340.5S519.1,1161,519.1,1349.2S671.4,1689.6,859.6,1689.6z M383.9,1008.7
				c0-75.3,61.6-135.2,136.9-135.2H1200c75.3,0,136.9,59.9,136.9,135.2v953c0,75.3-61.6,135.2-136.9,135.2H519.1
				c-75.3,0-136.9-59.9-136.9-135.2v-953H383.9z"/>
		</g>
		<g>
			<g opacity="0.5">
				<defs>
					<path id="SVGID_4_" opacity="0.5" d="M859.6,1417.6c-37.6,0-68.4-30.8-68.4-68.4s30.8-68.4,68.4-68.4
						c37.6,0,68.4,30.8,68.4,68.4S897.2,1417.6,859.6,1417.6z M587.5,1893.2c0,37.6,30.8,68.4,68.4,68.4h408.9
						c37.6,0,68.4-30.8,68.4-68.4s-30.8-68.4-68.4-68.4H656C618.3,1824.8,587.5,1855.6,587.5,1893.2z M859.6,1689.6
						c188.2,0,340.5-152.3,340.5-340.5s-152.3-340.5-340.5-340.5S519.1,1161,519.1,1349.2S671.4,1689.6,859.6,1689.6z M383.9,1008.7
						c0-75.3,61.6-135.2,136.9-135.2H1200c75.3,0,136.9,59.9,136.9,135.2v953c0,75.3-61.6,135.2-136.9,135.2H519.1
						c-75.3,0-136.9-59.9-136.9-135.2v-953H383.9z"/>
				</defs>
				<clipPath id="SVGID_5_">
					<use xlink:href="#SVGID_4_"  overflow="visible"/>
				</clipPath>
				<g clip-path="url(#SVGID_5_)">
					<g>
						<rect id="SVGID_3_" x="43.5" y="669.9" fill="#607D8B" width="1630.5" height="1630.5"/>
					</g>
					<g opacity="0.59" enable-background="new    ">
						<g>
							<defs>
								<rect id="SVGID_6_" x="43.5" y="669.9" width="1630.5" height="1630.5"/>
							</defs>
							<clipPath id="SVGID_7_">
								<use xlink:href="#SVGID_6_"  overflow="visible"/>
							</clipPath>
							<rect x="43.5" y="533.1" clip-path="url(#SVGID_7_)" fill="#607D8B" width="1630.5" height="1902.5"/>
						</g>
					</g>
				</g>
			</g>
		</g>
	</g>
</g>
<g id="cloud-media-backup" display="none">
	<g display="inline">
		<path opacity="0.5" fill="#607D8B" d="M624.5,1472 M959.8,1543.9l-123.2,71.9V1472v-143.7l123.2,71.9L1083,1472L959.8,1543.9z"/>
		<path opacity="0.5" fill="#607D8B" enable-background="new    " d="M927.8,1059.2c-229.3,0-414,184.8-414,414H375.2L560,1656.3
			l184.8-184.8H606.2c0-177.9,143.7-321.6,321.6-321.6s321.6,143.7,321.6,321.6s-143.7,321.6-321.6,321.6
			c-70.1,0-133.4-22.2-186.5-59.9l-65,66.7c70.1,53,157.4,85.5,251.5,85.5c229.3,0,414-184.8,414-414S1155.4,1059.2,927.8,1059.2z"
			/>
	</g>
</g>
<g id="Layer_7">
	<path opacity="0.5" fill="#607D8B" stroke="#FFFFFF" stroke-miterlimit="10" enable-background="new    " d="M1272.3,808.2H460
		c-74.5,0-135.4,60.9-135.4,135.4v1083.2c0,74.5,60.9,135.4,135.4,135.4h812.4c74.5,0,135.4-60.9,135.4-135.4V943.6
		C1407.7,869.1,1346.8,808.2,1272.3,808.2z M460,943.6h338.5v541.6l-169.3-101.6L460,1485.2V943.6z"/>
</g>
</svg>
