<?xml version="1.0" encoding="utf-8"?>
<!-- Generator: Adobe Illustrator 18.0.0, SVG Export Plug-In . SVG Version: 6.00 Build 0)  -->
<!DOCTYPE svg PUBLIC "-//W3C//DTD SVG 1.1//EN" "http://www.w3.org/Graphics/SVG/1.1/DTD/svg11.dtd">
<svg version="1.1" xmlns="http://www.w3.org/2000/svg" xmlns:xlink="http://www.w3.org/1999/xlink" x="0px" y="0px"
	 viewBox="0 621.2 1728 1728" enable-background="new 0 621.2 1728 1728" xml:space="preserve">
<g id="cloud-assets" display="none">
	<path display="inline" opacity="0.5" fill="#607D8B" enable-background="new    " d="M1372.1,946.1H371.3
		c-61.6,0-111.2,49.6-111.2,111.2v667.2c0,61.6,49.6,111.2,111.2,111.2h388.4V1947H650.1v111.2H1095V1947H983.8v-111.2h388.4
		c61.6,0,111.2-49.6,111.2-111.2v-667.2C1483.3,997.5,1433.7,946.1,1372.1,946.1z M1372.1,1724.6H371.3v-667.2h1000.9V1724.6z"/>
</g>
<g id="cloud-backup">
	<path opacity="0.5" fill="#607D8B" enable-background="new    " d="M927.8,1059.2c-229.3,0-414,184.8-414,414H375.2L560,1656.3
		l184.8-184.8H606.2c0-177.9,143.7-321.6,321.6-321.6s321.6,143.7,321.6,321.6s-143.7,321.6-321.6,321.6
		c-70.1,0-133.4-22.2-186.5-59.9l-65,66.7c70.1,53,157.4,85.5,251.5,85.5c229.3,0,414-184.8,414-414S1155.4,1059.2,927.8,1059.2z"/>
</g>
</svg>
