<?xml version="1.0" encoding="utf-8"?>
<!-- Generator: Adobe Illustrator 18.0.0, SVG Export Plug-In . SVG Version: 6.00 Build 0)  -->
<!DOCTYPE svg PUBLIC "-//W3C//DTD SVG 1.1//EN" "http://www.w3.org/Graphics/SVG/1.1/DTD/svg11.dtd">
<svg version="1.1" id="Layer_1" xmlns="http://www.w3.org/2000/svg" xmlns:xlink="http://www.w3.org/1999/xlink" x="0px" y="0px"
	 viewBox="0 0 1728 404" enable-background="new 0 0 1728 404" xml:space="preserve">
<circle fill="#FFFFFF" cx="244.2" cy="299.4" r="21.3"/>
<circle fill="#FFFFFF" cx="308.5" cy="349.5" r="21.3"/>
<g>
	<circle fill="#FFFFFF" cx="378.6" cy="218.8" r="55.5"/>
	<path fill="#FFFFFF" d="M378.6,276.4c-15.4,0-29.6-5.8-40.5-16.7s-16.7-25.5-16.7-40.5c0-15.4,5.8-29.6,16.7-40.5
		c10.9-10.9,25.5-16.7,40.5-16.7c15,0,29.6,5.8,40.5,16.7c22.5,22.5,22.5,58.9,0,81C408.2,270.2,393.6,276.4,378.6,276.4z
		 M378.6,165c-14.2,0-28,5.4-38,15.9c-10,10-15.9,23.8-15.9,38c0,14.2,5.4,28,15.9,38c10,10,23.8,15.9,38,15.9
		c14.2,0,28-5.4,38-15.9c20.9-20.9,20.9-55.1,0-76C406.1,170.8,392.8,165,378.6,165z"/>
</g>
<circle fill="#FFFFFF" cx="305.1" cy="285.2" r="34.2"/>
<g>
	<rect x="354.4" y="322.8" fill="#FFFFFF" width="37.6" height="3.8"/>
	<rect x="371.5" y="306.1" fill="#FFFFFF" width="3.8" height="37.6"/>
</g>
<g enable-background="new    ">
	<path fill="#FFFFFF" d="M494.7,323.7V180.3h43.9c22,0,39.7,6.6,52.9,19.9c13.2,13.3,19.8,30.6,19.8,51.8c0,21.2-6.6,38.5-19.8,51.8
		c-13.2,13.3-30.9,19.9-52.9,19.9H494.7z M513.1,306.1h25.4c16.6,0,29.7-4.7,39.4-14.2c9.7-9.5,14.5-22.8,14.5-39.9
		c0-17-4.8-30.2-14.5-39.8c-9.7-9.5-22.8-14.3-39.4-14.3h-25.4V306.1z"/>
	<path fill="#FFFFFF" d="M657,326.9c-10.4,0-19.1-3-26.1-9c-7-6-10.5-14-10.5-23.8c0-10.7,4.1-19.1,12.4-25.1
		c8.3-6.1,18.5-9.1,30.7-9.1c10.8,0,19.7,2,26.6,6V263c0-7.2-2.5-13-7.4-17.3c-4.9-4.3-11-6.5-18.2-6.5c-5.3,0-10.2,1.3-14.5,3.8
		c-4.3,2.5-7.3,6-8.9,10.4l-16.8-7.2c2.3-5.9,6.7-11.3,13.4-16.3c6.7-5,15.5-7.5,26.4-7.5c12.6,0,23,3.7,31.3,11
		c8.3,7.3,12.4,17.7,12.4,31.1v59.3h-17.6v-13.6h-0.8C681.9,321.3,671.2,326.9,657,326.9z M660,310.1c7.6,0,14.5-2.8,20.7-8.5
		c6.2-5.7,9.3-12.4,9.3-20.1c-5.2-4.3-13-6.4-23.4-6.4c-9,0-15.7,1.9-20.2,5.8c-4.5,3.9-6.8,8.4-6.8,13.6c0,4.8,2.1,8.6,6.2,11.4
		C649.9,308.7,654.7,310.1,660,310.1z"/>
</g>
<g enable-background="new    ">
	<path fill="#FFFFFF" d="M764.8,325.3c-10.3,0-18.1-2.7-23.5-8.2c-5.4-5.5-8.1-13.2-8.1-23.2v-51.5h-17.2v-16.8h17.2v-30.1h18.4
		v30.1h24v16.8h-24v50.1c0,10.7,4.4,16,13.2,16c3.3,0,6.1-0.5,8.4-1.6l6.4,15.8C775.6,324.5,770.7,325.3,764.8,325.3z"/>
	<path fill="#FFFFFF" d="M822.3,326.9c-10.4,0-19.1-3-26.1-9c-7-6-10.5-14-10.5-23.8c0-10.7,4.1-19.1,12.4-25.1
		c8.3-6.1,18.5-9.1,30.7-9.1c10.8,0,19.7,2,26.6,6V263c0-7.2-2.5-13-7.4-17.3c-4.9-4.3-11-6.5-18.2-6.5c-5.3,0-10.2,1.3-14.5,3.8
		c-4.3,2.5-7.3,6-8.9,10.4l-16.8-7.2c2.3-5.9,6.7-11.3,13.4-16.3c6.7-5,15.5-7.5,26.4-7.5c12.6,0,23,3.7,31.3,11
		c8.3,7.3,12.4,17.7,12.4,31.1v59.3h-17.6v-13.6h-0.8C847.2,321.3,836.5,326.9,822.3,326.9z M825.3,310.1c7.6,0,14.5-2.8,20.7-8.5
		c6.2-5.7,9.3-12.4,9.3-20.1c-5.2-4.3-13-6.4-23.4-6.4c-9,0-15.7,1.9-20.2,5.8c-4.5,3.9-6.8,8.4-6.8,13.6c0,4.8,2.1,8.6,6.2,11.4
		C815.2,308.7,820,310.1,825.3,310.1z"/>
</g>
<g enable-background="new    ">
	<path fill="#FFFFFF" d="M966.9,323.7l-50.5-143.4h20.4l39.3,116.4h0.8l40.9-116.4h20.4l-52.1,143.4H966.9z"/>
</g>
<g enable-background="new    ">
	<path fill="#FFFFFF" d="M1071.7,200.9c-2.5,2.5-5.6,3.8-9.2,3.8s-6.7-1.3-9.2-3.8c-2.5-2.5-3.8-5.6-3.8-9.2c0-3.6,1.3-6.7,3.8-9.2
		c2.5-2.5,5.6-3.8,9.2-3.8s6.7,1.3,9.2,3.8c2.5,2.5,3.8,5.6,3.8,9.2C1075.5,195.3,1074.2,198.4,1071.7,200.9z M1071.7,323.7h-18.4
		v-98.2h18.4V323.7z"/>
</g>
<g enable-background="new    ">
	<path fill="#FFFFFF" d="M1127.3,326.9c-11,0-20-2.7-27.1-8c-7.1-5.3-12.4-12-15.7-20l16.4-6.8c5.2,12.3,14.1,18.4,26.6,18.4
		c5.7,0,10.5-1.3,14.1-3.8c3.7-2.5,5.5-5.9,5.5-10c0-6.4-4.5-10.8-13.4-13l-19.8-4.8c-6.3-1.6-12.2-4.6-17.8-9.1
		c-5.6-4.5-8.4-10.5-8.4-18.1c0-8.7,3.8-15.7,11.5-21.1c7.7-5.4,16.8-8.1,27.3-8.1c8.7,0,16.4,2,23.2,5.9
		c6.8,3.9,11.7,9.6,14.6,16.9l-16,6.6c-3.6-8.7-11.1-13-22.4-13c-5.5,0-10.1,1.1-13.8,3.4c-3.7,2.3-5.6,5.3-5.6,9.2
		c0,5.6,4.3,9.4,13,11.4l19.4,4.6c9.2,2.1,16,5.8,20.4,11c4.4,5.2,6.6,11.1,6.6,17.6c0,8.8-3.6,16.2-10.8,22
		C1148,324,1138.7,326.9,1127.3,326.9z"/>
</g>
<g enable-background="new    ">
	<path fill="#FFFFFF" d="M1264.2,326.9c-15.8,0-28.5-5.2-38.4-15.6c-9.8-10.4-14.7-24-14.7-40.9v-90.2h18.4v91
		c0,11.4,3,20.5,8.9,27.5c5.9,7,14.5,10.5,25.7,10.5s19.8-3.5,25.7-10.5c5.9-7,8.9-16.2,8.9-27.5v-91h18.4v90.2
		c0,17-4.8,30.6-14.3,41C1293.4,321.8,1280.5,326.9,1264.2,326.9z"/>
</g>
<g enable-background="new    ">
	<path fill="#FFFFFF" d="M1321.6,323.7l48.1-74.1l-45.3-69.3h22l34.9,54.9h0.8l34.9-54.9h22l-45.3,69.3l48.1,74.1h-21.6l-38.1-58.7
		h-0.8l-38.1,58.7H1321.6z"/>
</g>
<path fill="#FFFFFF" d="M230.8,90.7c-49.8,0-90.2,40.4-90.2,90.2c0,49.8,40.4,90.2,90.2,90.2s90.2-40.4,90.2-90.2
	C321,131.1,280.6,90.7,230.8,90.7z M249.6,183.4h-16.7v17.1h-3.8v-17.1H212v-3.8h17.1v-16.7h3.8v16.7h16.7V183.4z"/>
<g enable-background="new    ">
	<path fill="#FFFFFF" d="M521.8,52.7h9.3l26.3,69.2h-9l-7-19h-29.9l-7,19h-9L521.8,52.7z M538.7,95.1l-9.2-24.9l-2.8-7.4h-0.4
		l-2.7,7.4l-9.2,24.9H538.7z"/>
	<path fill="#FFFFFF" d="M564.9,72.6h7.8v7.2h0.4c1.4-2.4,3.5-4.5,6.5-6.2c3-1.7,6.1-2.6,9.5-2.6c5.9,0,10.5,1.7,13.6,5.2
		c3.1,3.4,4.7,8.1,4.7,14.1v31.6h-8.2V91.6c0-4.6-1.1-7.9-3.3-10c-2.2-2.1-5.2-3.1-9-3.1c-2.6,0-5,0.7-7.1,2.2
		c-2.1,1.5-3.7,3.4-4.9,5.8c-1.2,2.4-1.7,4.9-1.7,7.6v27.7h-8.2V72.6z"/>
	<path fill="#FFFFFF" d="M650.8,120.1c-3.7-2.3-6.7-5.4-8.7-9.3c-2.1-4-3.1-8.4-3.1-13.4c0-4.8,1-9.1,2.9-13.1c2-4,4.7-7.2,8.4-9.6
		c3.6-2.4,7.8-3.6,12.6-3.6c4.8,0,9,1.1,12.6,3.2c3.5,2.2,6.3,5.1,8.2,8.9c1.9,3.8,2.9,8.1,2.9,13c0,1-0.1,1.8-0.3,2.5h-38.9
		c0.2,3.7,1.1,6.9,2.7,9.5c1.6,2.6,3.7,4.5,6.1,5.8c2.5,1.3,5.1,1.9,7.8,1.9c6.3,0,11.2-3,14.6-8.9l7,3.4c-2.1,4-5,7.1-8.6,9.5
		c-3.6,2.3-8,3.5-13.2,3.5C658.8,123.4,654.6,122.3,650.8,120.1z M677.7,92c-0.1-2.1-0.7-4.1-1.7-6.2c-1-2.1-2.7-3.8-4.9-5.2
		c-2.2-1.4-5-2.1-8.4-2.1c-3.9,0-7.1,1.2-9.8,3.7c-2.7,2.5-4.4,5.7-5.3,9.8H677.7z"/>
	<path fill="#FFFFFF" d="M707.5,96.9l-17.1-24.3h9.3l12.8,18.3l12.3-18.3h9.6l-17.2,24.3l17.6,25h-9.6L712.3,103l-12.6,18.9h-9.6
		L707.5,96.9z"/>
	<path fill="#FFFFFF" d="M741.7,72.6h7.8V80h0.4c1.5-2.5,3.7-4.6,6.7-6.3c3-1.7,6.4-2.6,10.1-2.6c4.4,0,8.4,1.1,12,3.4
		c3.6,2.3,6.4,5.4,8.5,9.4c2.1,4,3.1,8.5,3.1,13.4c0,5-1,9.5-3.1,13.5c-2.1,4-4.9,7.1-8.5,9.3c-3.6,2.3-7.6,3.4-12,3.4
		c-3.7,0-7.1-0.9-10.1-2.6s-5.2-3.8-6.7-6.2h-0.4l0.4,6.8v21.4h-8.2V72.6z M773.7,113.7c2.5-1.5,4.5-3.8,6-6.6
		c1.5-2.9,2.3-6.1,2.3-9.8c0-3.7-0.8-6.9-2.3-9.8c-1.5-2.9-3.5-5.1-6-6.6s-5.2-2.3-8-2.3c-2.8,0-5.5,0.8-8,2.3s-4.5,3.7-6,6.6
		c-1.5,2.8-2.2,6.1-2.2,9.9c0,3.7,0.7,7,2.2,9.9c1.5,2.8,3.5,5,6,6.6s5.2,2.3,8,2.3C768.5,116,771.2,115.2,773.7,113.7z"/>
	<path fill="#FFFFFF" d="M809.1,120.1c-3.7-2.3-6.7-5.4-8.7-9.3c-2.1-4-3.1-8.4-3.1-13.4c0-4.8,1-9.1,2.9-13.1c2-4,4.7-7.2,8.4-9.6
		c3.6-2.4,7.8-3.6,12.6-3.6c4.8,0,9,1.1,12.6,3.2c3.5,2.2,6.3,5.1,8.2,8.9c1.9,3.8,2.9,8.1,2.9,13c0,1-0.1,1.8-0.3,2.5h-38.9
		c0.2,3.7,1.1,6.9,2.7,9.5c1.6,2.6,3.7,4.5,6.1,5.8c2.5,1.3,5.1,1.9,7.8,1.9c6.3,0,11.2-3,14.6-8.9l7,3.4c-2.1,4-5,7.1-8.6,9.5
		c-3.6,2.3-8,3.5-13.2,3.5C817,123.4,812.8,122.3,809.1,120.1z M836,92c-0.1-2.1-0.7-4.1-1.7-6.2c-1-2.1-2.7-3.8-4.9-5.2
		c-2.2-1.4-5-2.1-8.4-2.1c-3.9,0-7.1,1.2-9.8,3.7c-2.7,2.5-4.4,5.7-5.3,9.8H836z"/>
	<path fill="#FFFFFF" d="M854.2,72.6h7.8v7.9h0.4c1-2.7,2.8-5,5.6-6.8c2.8-1.8,5.7-2.7,8.7-2.7c2.3,0,4.2,0.4,5.8,1.1v8.8
		c-2.1-1-4.4-1.5-7-1.5c-2.4,0-4.6,0.7-6.6,2c-2,1.4-3.6,3.2-4.8,5.5c-1.2,2.3-1.8,4.8-1.8,7.4v27.6h-8.2V72.6z"/>
	<path fill="#FFFFFF" d="M891.1,61.9c-1.2-1.2-1.7-2.5-1.7-4.2c0-1.6,0.6-3,1.7-4.1c1.2-1.1,2.5-1.7,4.2-1.7c1.6,0,3,0.6,4.2,1.7
		c1.2,1.1,1.7,2.5,1.7,4.1c0,1.6-0.6,3-1.7,4.2c-1.1,1.2-2.5,1.7-4.2,1.7C893.7,63.6,892.3,63.1,891.1,61.9z M891.2,72.6h8.1v49.3
		h-8.1V72.6z"/>
	<path fill="#FFFFFF" d="M912.3,72.6h7.8v7.2h0.4c1.4-2.5,3.5-4.6,6.4-6.3c2.8-1.7,5.8-2.5,9-2.5c3.6,0,6.7,0.9,9.4,2.6
		c2.7,1.7,4.6,4.1,5.7,7c1.7-2.9,4-5.2,6.9-7c2.9-1.7,6.2-2.6,10-2.6c5.7,0,9.9,1.7,12.8,5.2c2.9,3.4,4.3,8.1,4.3,14.1v31.6h-8.1
		V91.6c0-4.6-0.9-7.9-2.8-10c-1.9-2.1-4.6-3.1-8.3-3.1c-2.4,0-4.7,0.7-6.7,2.1c-2,1.4-3.6,3.3-4.7,5.7c-1.1,2.4-1.7,5-1.7,7.7v27.8
		h-8.2V91.7c0-4.6-0.9-8-2.8-10c-1.9-2.1-4.6-3.1-8.2-3.1c-2.4,0-4.7,0.7-6.7,2.2c-2,1.4-3.6,3.4-4.7,5.8s-1.7,5-1.7,7.8v27.6h-8.2
		V72.6z"/>
	<path fill="#FFFFFF" d="M1006.1,120.1c-3.7-2.3-6.7-5.4-8.7-9.3c-2.1-4-3.1-8.4-3.1-13.4c0-4.8,1-9.1,2.9-13.1c2-4,4.8-7.2,8.4-9.6
		c3.6-2.4,7.8-3.6,12.6-3.6c4.8,0,9,1.1,12.6,3.2c3.5,2.2,6.3,5.1,8.2,8.9c1.9,3.8,2.9,8.1,2.9,13c0,1-0.1,1.8-0.3,2.5h-38.9
		c0.2,3.7,1.1,6.9,2.7,9.5c1.6,2.6,3.7,4.5,6.1,5.8c2.5,1.3,5.1,1.9,7.8,1.9c6.3,0,11.2-3,14.6-8.9l7,3.4c-2.1,4-5,7.1-8.6,9.5
		c-3.6,2.3-8,3.5-13.2,3.5C1014.1,123.4,1009.8,122.3,1006.1,120.1z M1033,92c-0.1-2.1-0.7-4.1-1.7-6.2c-1-2.1-2.7-3.8-4.9-5.2
		c-2.2-1.4-5-2.1-8.4-2.1c-3.9,0-7.1,1.2-9.8,3.7c-2.7,2.5-4.4,5.7-5.3,9.8H1033z"/>
	<path fill="#FFFFFF" d="M1051.2,72.6h7.8v7.2h0.4c1.4-2.4,3.5-4.5,6.5-6.2c3-1.7,6.1-2.6,9.5-2.6c5.9,0,10.5,1.7,13.6,5.2
		c3.1,3.4,4.7,8.1,4.7,14.1v31.6h-8.2V91.6c0-4.6-1.1-7.9-3.3-10c-2.2-2.1-5.2-3.1-9-3.1c-2.6,0-5,0.7-7.1,2.2
		c-2.1,1.5-3.7,3.4-4.9,5.8s-1.7,4.9-1.7,7.6v27.7h-8.2V72.6z"/>
	<path fill="#FFFFFF" d="M1116.4,122.5c-1.7-0.7-3.1-1.5-4.3-2.7c-1.3-1.2-2.3-2.7-2.9-4.3c-0.6-1.6-1-3.6-1-6V80.1h-8.6v-7.4h8.6
		V58.7h8.2v13.9h12v7.4h-12v27.5c0,2.8,0.5,4.8,1.5,6.1c1.2,1.4,3,2.2,5.3,2.2c1.9,0,3.7-0.5,5.4-1.6v8c-1,0.4-1.9,0.8-2.9,1
		c-1,0.2-2.3,0.3-3.8,0.3C1119.9,123.4,1118.1,123.1,1116.4,122.5z"/>
	<path fill="#FFFFFF" d="M1175.7,120.9c-3-1.7-5.2-3.8-6.7-6.2h-0.4v7.2h-7.8V52.7h8.2v20.4l-0.4,6.9h0.4c1.5-2.5,3.7-4.6,6.7-6.3
		c3-1.7,6.4-2.6,10.1-2.6c4.4,0,8.4,1.1,12,3.4c3.6,2.3,6.4,5.4,8.5,9.4c2.1,4,3.1,8.5,3.1,13.4c0,5-1,9.5-3.1,13.5
		c-2.1,4-4.9,7.1-8.5,9.3c-3.6,2.3-7.6,3.4-12,3.4C1182.1,123.4,1178.7,122.6,1175.7,120.9z M1192.9,113.7c2.5-1.5,4.5-3.8,6-6.6
		c1.5-2.9,2.3-6.1,2.3-9.8c0-3.7-0.8-6.9-2.3-9.8c-1.5-2.9-3.5-5.1-6-6.6c-2.5-1.5-5.2-2.3-8-2.3c-2.8,0-5.5,0.8-8,2.3
		c-2.5,1.5-4.5,3.7-6,6.6c-1.5,2.8-2.2,6.1-2.2,9.9c0,3.7,0.7,7,2.2,9.9c1.5,2.8,3.5,5,6,6.6c2.5,1.5,5.2,2.3,8,2.3
		C1187.7,116,1190.4,115.2,1192.9,113.7z"/>
	<path fill="#FFFFFF" d="M1232.1,118.8l-20.4-46.2h8.9l15.5,36.6h0.2l14.9-36.6h8.9l-30.4,70.1h-8.5L1232.1,118.8z"/>
</g>
</svg>
