<?xml version="1.0" encoding="UTF-8"?>
<svg width="1302px" height="320px" viewBox="0 0 1302 320" version="1.1" xmlns="http://www.w3.org/2000/svg" xmlns:xlink="http://www.w3.org/1999/xlink">
    <!-- Generator: Sketch 55.1 (78136) - https://sketchapp.com -->
    <title>data-vis-ux-logo-dark-01</title>
    <desc>Created with Sketch.</desc>
    <g id="Page-1" stroke="none" stroke-width="1" fill="none" fill-rule="evenodd">
        <g id="data-vis-ux-logo-01" fill="#444444" fill-rule="nonzero">
            <circle id="Oval" cx="104.2" cy="248.4" r="21.3"></circle>
            <circle id="Oval" cx="168.5" cy="298.5" r="21.3"></circle>
            <circle id="Oval" cx="165.1" cy="234.2" r="34.2"></circle>
            <rect id="Rectangle" x="214.4" y="271.8" width="37.6" height="3.8"></rect>
            <rect id="Rectangle" x="231.5" y="255.1" width="3.8" height="37.6"></rect>
            <path d="M354.7,272.7 L354.7,129.3 L398.6,129.3 C420.6,129.3 438.3,135.9 451.5,149.2 C464.7,162.5 471.3,179.8 471.3,201 C471.3,222.2 464.7,239.5 451.5,252.8 C438.3,266.1 420.6,272.7 398.6,272.7 L354.7,272.7 Z M373.1,255.1 L398.5,255.1 C415.1,255.1 428.2,250.4 437.9,240.9 C447.6,231.4 452.4,218.1 452.4,201 C452.4,184 447.6,170.8 437.9,161.2 C428.2,151.7 415.1,146.9 398.5,146.9 L373.1,146.9 L373.1,255.1 Z" id="Shape"></path>
            <path d="M517,275.9 C506.6,275.9 497.9,272.9 490.9,266.9 C483.9,260.9 480.4,252.9 480.4,243.1 C480.4,232.4 484.5,224 492.8,218 C501.1,211.9 511.3,208.9 523.5,208.9 C534.3,208.9 543.2,210.9 550.1,214.9 L550.1,212 C550.1,204.8 547.6,199 542.7,194.7 C537.8,190.4 531.7,188.2 524.5,188.2 C519.2,188.2 514.3,189.5 510,192 C505.7,194.5 502.7,198 501.1,202.4 L484.3,195.2 C486.6,189.3 491,183.9 497.7,178.9 C504.4,173.9 513.2,171.4 524.1,171.4 C536.7,171.4 547.1,175.1 555.4,182.4 C563.7,189.7 567.8,200.1 567.8,213.5 L567.8,272.8 L550.2,272.8 L550.2,259.2 L549.4,259.2 C541.9,270.3 531.2,275.9 517,275.9 Z M520,259.1 C527.6,259.1 534.5,256.3 540.7,250.6 C546.9,244.9 550,238.2 550,230.5 C544.8,226.2 537,224.1 526.6,224.1 C517.6,224.1 510.9,226 506.4,229.9 C501.9,233.8 499.6,238.3 499.6,243.5 C499.6,248.3 501.7,252.1 505.8,254.9 C509.9,257.7 514.7,259.1 520,259.1 Z" id="Shape"></path>
            <path d="M624.8,274.3 C614.5,274.3 606.7,271.6 601.3,266.1 C595.9,260.6 593.2,252.9 593.2,242.9 L593.2,191.4 L576,191.4 L576,174.6 L593.2,174.6 L593.2,144.5 L611.6,144.5 L611.6,174.6 L635.6,174.6 L635.6,191.4 L611.6,191.4 L611.6,241.5 C611.6,252.2 616,257.5 624.8,257.5 C628.1,257.5 630.9,257 633.2,255.9 L639.6,271.7 C635.6,273.5 630.7,274.3 624.8,274.3 Z" id="Path"></path>
            <path d="M682.3,275.9 C671.9,275.9 663.2,272.9 656.2,266.9 C649.2,260.9 645.7,252.9 645.7,243.1 C645.7,232.4 649.8,224 658.1,218 C666.4,211.9 676.6,208.9 688.8,208.9 C699.6,208.9 708.5,210.9 715.4,214.9 L715.4,212 C715.4,204.8 712.9,199 708,194.7 C703.1,190.4 697,188.2 689.8,188.2 C684.5,188.2 679.6,189.5 675.3,192 C671,194.5 668,198 666.4,202.4 L649.6,195.2 C651.9,189.3 656.3,183.9 663,178.9 C669.7,173.9 678.5,171.4 689.4,171.4 C702,171.4 712.4,175.1 720.7,182.4 C729,189.7 733.1,200.1 733.1,213.5 L733.1,272.8 L715.5,272.8 L715.5,259.2 L714.7,259.2 C707.2,270.3 696.5,275.9 682.3,275.9 Z M685.3,259.1 C692.9,259.1 699.8,256.3 706,250.6 C712.2,244.9 715.3,238.2 715.3,230.5 C710.1,226.2 702.3,224.1 691.9,224.1 C682.9,224.1 676.2,226 671.7,229.9 C667.2,233.8 664.9,238.3 664.9,243.5 C664.9,248.3 667,252.1 671.1,254.9 C675.2,257.7 680,259.1 685.3,259.1 Z" id="Shape"></path>
            <polygon id="Path" points="826.9 272.7 776.4 129.3 796.8 129.3 836.1 245.7 836.9 245.7 877.8 129.3 898.2 129.3 846.1 272.7"></polygon>
            <path d="M931.7,149.9 C929.2,152.4 926.1,153.7 922.5,153.7 C918.9,153.7 915.8,152.4 913.3,149.9 C910.8,147.4 909.5,144.3 909.5,140.7 C909.5,137.1 910.8,134 913.3,131.5 C915.8,129 918.9,127.7 922.5,127.7 C926.1,127.7 929.2,129 931.7,131.5 C934.2,134 935.5,137.1 935.5,140.7 C935.5,144.3 934.2,147.4 931.7,149.9 Z M931.7,272.7 L913.3,272.7 L913.3,174.5 L931.7,174.5 L931.7,272.7 Z" id="Shape"></path>
            <path d="M987.3,275.9 C976.3,275.9 967.3,273.2 960.2,267.9 C953.1,262.6 947.8,255.9 944.5,247.9 L960.9,241.1 C966.1,253.4 975,259.5 987.5,259.5 C993.2,259.5 998,258.2 1001.6,255.7 C1005.3,253.2 1007.1,249.8 1007.1,245.7 C1007.1,239.3 1002.6,234.9 993.7,232.7 L973.9,227.9 C967.6,226.3 961.7,223.3 956.1,218.8 C950.5,214.3 947.7,208.3 947.7,200.7 C947.7,192 951.5,185 959.2,179.6 C966.9,174.2 976,171.5 986.5,171.5 C995.2,171.5 1002.9,173.5 1009.7,177.4 C1016.5,181.3 1021.4,187 1024.3,194.3 L1008.3,200.9 C1004.7,192.2 997.2,187.9 985.9,187.9 C980.4,187.9 975.8,189 972.1,191.3 C968.4,193.6 966.5,196.6 966.5,200.5 C966.5,206.1 970.8,209.9 979.5,211.9 L998.9,216.5 C1008.1,218.6 1014.9,222.3 1019.3,227.5 C1023.7,232.7 1025.9,238.6 1025.9,245.1 C1025.9,253.9 1022.3,261.3 1015.1,267.1 C1008,273 998.7,275.9 987.3,275.9 Z" id="Path"></path>
            <path d="M1124.2,275.9 C1108.4,275.9 1095.7,270.7 1085.8,260.3 C1076,249.9 1071.1,236.3 1071.1,219.4 L1071.1,129.2 L1089.5,129.2 L1089.5,220.2 C1089.5,231.6 1092.5,240.7 1098.4,247.7 C1104.3,254.7 1112.9,258.2 1124.1,258.2 C1135.3,258.2 1143.9,254.7 1149.8,247.7 C1155.7,240.7 1158.7,231.5 1158.7,220.2 L1158.7,129.2 L1177.1,129.2 L1177.1,219.4 C1177.1,236.4 1172.3,250 1162.8,260.4 C1153.4,270.8 1140.5,275.9 1124.2,275.9 Z" id="Path"></path>
            <polygon id="Path" points="1181.6 272.7 1229.7 198.6 1184.4 129.3 1206.4 129.3 1241.3 184.2 1242.1 184.2 1277 129.3 1299 129.3 1253.7 198.6 1301.8 272.7 1280.2 272.7 1242.1 214 1241.3 214 1203.2 272.7 1181.6 272.7"></polygon>
            <path d="M90.8,39.7 C41,39.7 0.6,80.1 0.6,129.9 C0.6,179.7 41,220.1 90.8,220.1 C140.6,220.1 181,179.7 181,129.9 C181,80.1 140.6,39.7 90.8,39.7 Z M109.6,132.4 L92.9,132.4 L92.9,149.5 L89.1,149.5 L89.1,132.4 L72,132.4 L72,128.6 L89.1,128.6 L89.1,111.9 L92.9,111.9 L92.9,128.6 L109.6,128.6 L109.6,132.4 Z" id="Shape"></path>
            <path d="M381.8,1.7 L391.1,1.7 L417.4,70.9 L408.4,70.9 L401.4,51.9 L371.5,51.9 L364.5,70.9 L355.5,70.9 L381.8,1.7 Z M398.7,44.1 L389.5,19.2 L386.7,11.8 L386.3,11.8 L383.6,19.2 L374.4,44.1 L398.7,44.1 Z" id="Shape"></path>
            <path d="M424.9,21.6 L432.7,21.6 L432.7,28.8 L433.1,28.8 C434.5,26.4 436.6,24.3 439.6,22.6 C442.6,20.9 445.7,20 449.1,20 C455,20 459.6,21.7 462.7,25.2 C465.8,28.6 467.4,33.3 467.4,39.3 L467.4,70.9 L459.2,70.9 L459.2,40.6 C459.2,36 458.1,32.7 455.9,30.6 C453.7,28.5 450.7,27.5 446.9,27.5 C444.3,27.5 441.9,28.2 439.8,29.7 C437.7,31.2 436.1,33.1 434.9,35.5 C433.7,37.9 433.2,40.4 433.2,43.1 L433.2,70.8 L425,70.8 L425,21.6 L424.9,21.6 Z" id="Path"></path>
            <path d="M510.8,69.1 C507.1,66.8 504.1,63.7 502.1,59.8 C500,55.8 499,51.4 499,46.4 C499,41.6 500,37.3 501.9,33.3 C503.9,29.3 506.6,26.1 510.3,23.7 C513.9,21.3 518.1,20.1 522.9,20.1 C527.7,20.1 531.9,21.2 535.5,23.3 C539,25.5 541.8,28.4 543.7,32.2 C545.6,36 546.6,40.3 546.6,45.2 C546.6,46.2 546.5,47 546.3,47.7 L507.4,47.7 C507.6,51.4 508.5,54.6 510.1,57.2 C511.7,59.8 513.8,61.7 516.2,63 C518.7,64.3 521.3,64.9 524,64.9 C530.3,64.9 535.2,61.9 538.6,56 L545.6,59.4 C543.5,63.4 540.6,66.5 537,68.9 C533.4,71.2 529,72.4 523.8,72.4 C518.8,72.4 514.6,71.3 510.8,69.1 Z M537.7,41 C537.6,38.9 537,36.9 536,34.8 C535,32.7 533.3,31 531.1,29.6 C528.9,28.2 526.1,27.5 522.7,27.5 C518.8,27.5 515.6,28.7 512.9,31.2 C510.2,33.7 508.5,36.9 507.6,41 L537.7,41 Z" id="Shape"></path>
            <polygon id="Path" points="567.5 45.9 550.4 21.6 559.7 21.6 572.5 39.9 584.8 21.6 594.4 21.6 577.2 45.9 594.8 70.9 585.2 70.9 572.3 52 559.7 70.9 550.1 70.9"></polygon>
            <path d="M601.7,21.6 L609.5,21.6 L609.5,29 L609.9,29 C611.4,26.5 613.6,24.4 616.6,22.7 C619.6,21 623,20.1 626.7,20.1 C631.1,20.1 635.1,21.2 638.7,23.5 C642.3,25.8 645.1,28.9 647.2,32.9 C649.3,36.9 650.3,41.4 650.3,46.3 C650.3,51.3 649.3,55.8 647.2,59.8 C645.1,63.8 642.3,66.9 638.7,69.1 C635.1,71.4 631.1,72.5 626.7,72.5 C623,72.5 619.6,71.6 616.6,69.9 C613.6,68.2 611.4,66.1 609.9,63.7 L609.5,63.7 L609.9,70.5 L609.9,91.9 L601.7,91.9 L601.7,21.6 L601.7,21.6 Z M633.7,62.7 C636.2,61.2 638.2,58.9 639.7,56.1 C641.2,53.2 642,50 642,46.3 C642,42.6 641.2,39.4 639.7,36.5 C638.2,33.6 636.2,31.4 633.7,29.9 C631.2,28.4 628.5,27.6 625.7,27.6 C622.9,27.6 620.2,28.4 617.7,29.9 C615.2,31.4 613.2,33.6 611.7,36.5 C610.2,39.3 609.5,42.6 609.5,46.4 C609.5,50.1 610.2,53.4 611.7,56.3 C613.2,59.1 615.2,61.3 617.7,62.9 C620.2,64.5 622.9,65.2 625.7,65.2 C628.5,65 631.2,64.2 633.7,62.7 Z" id="Shape"></path>
            <path d="M669.1,69.1 C665.4,66.8 662.4,63.7 660.4,59.8 C658.3,55.8 657.3,51.4 657.3,46.4 C657.3,41.6 658.3,37.3 660.2,33.3 C662.2,29.3 664.9,26.1 668.6,23.7 C672.2,21.3 676.4,20.1 681.2,20.1 C686,20.1 690.2,21.2 693.8,23.3 C697.3,25.5 700.1,28.4 702,32.2 C703.9,36 704.9,40.3 704.9,45.2 C704.9,46.2 704.8,47 704.6,47.7 L665.7,47.7 C665.9,51.4 666.8,54.6 668.4,57.2 C670,59.8 672.1,61.7 674.5,63 C677,64.3 679.6,64.9 682.3,64.9 C688.6,64.9 693.5,61.9 696.9,56 L703.9,59.4 C701.8,63.4 698.9,66.5 695.3,68.9 C691.7,71.2 687.3,72.4 682.1,72.4 C677,72.4 672.8,71.3 669.1,69.1 Z M696,41 C695.9,38.9 695.3,36.9 694.3,34.8 C693.3,32.7 691.6,31 689.4,29.6 C687.2,28.2 684.4,27.5 681,27.5 C677.1,27.5 673.9,28.7 671.2,31.2 C668.5,33.7 666.8,36.9 665.9,41 L696,41 Z" id="Shape"></path>
            <path d="M714.2,21.6 L722,21.6 L722,29.5 L722.4,29.5 C723.4,26.8 725.2,24.5 728,22.7 C730.8,20.9 733.7,20 736.7,20 C739,20 740.9,20.4 742.5,21.1 L742.5,29.9 C740.4,28.9 738.1,28.4 735.5,28.4 C733.1,28.4 730.9,29.1 728.9,30.4 C726.9,31.8 725.3,33.6 724.1,35.9 C722.9,38.2 722.3,40.7 722.3,43.3 L722.3,70.9 L714.1,70.9 L714.1,21.6 L714.2,21.6 Z" id="Path"></path>
            <path d="M751.1,10.9 C749.9,9.7 749.4,8.4 749.4,6.7 C749.4,5.1 750,3.7 751.1,2.6 C752.3,1.5 753.6,0.9 755.3,0.9 C756.9,0.9 758.3,1.5 759.5,2.6 C760.7,3.7 761.2,5.1 761.2,6.7 C761.2,8.3 760.6,9.7 759.5,10.9 C758.4,12.1 757,12.6 755.3,12.6 C753.7,12.6 752.3,12.1 751.1,10.9 Z M751.2,21.6 L759.3,21.6 L759.3,70.9 L751.2,70.9 L751.2,21.6 Z" id="Shape"></path>
            <path d="M772.3,21.6 L780.1,21.6 L780.1,28.8 L780.5,28.8 C781.9,26.3 784,24.2 786.9,22.5 C789.7,20.8 792.7,20 795.9,20 C799.5,20 802.6,20.9 805.3,22.6 C808,24.3 809.9,26.7 811,29.6 C812.7,26.7 815,24.4 817.9,22.6 C820.8,20.9 824.1,20 827.9,20 C833.6,20 837.8,21.7 840.7,25.2 C843.6,28.6 845,33.3 845,39.3 L845,70.9 L836.9,70.9 L836.9,40.6 C836.9,36 836,32.7 834.1,30.6 C832.2,28.5 829.5,27.5 825.8,27.5 C823.4,27.5 821.1,28.2 819.1,29.6 C817.1,31 815.5,32.9 814.4,35.3 C813.3,37.7 812.7,40.3 812.7,43 L812.7,70.8 L804.5,70.8 L804.5,40.7 C804.5,36.1 803.6,32.7 801.7,30.7 C799.8,28.6 797.1,27.6 793.5,27.6 C791.1,27.6 788.8,28.3 786.8,29.8 C784.8,31.2 783.2,33.2 782.1,35.6 C781,38 780.4,40.6 780.4,43.4 L780.4,71 L772.2,71 L772.2,21.6 L772.3,21.6 Z" id="Path"></path>
            <path d="M866.1,69.1 C862.4,66.8 859.4,63.7 857.4,59.8 C855.3,55.8 854.3,51.4 854.3,46.4 C854.3,41.6 855.3,37.3 857.2,33.3 C859.2,29.3 862,26.1 865.6,23.7 C869.2,21.3 873.4,20.1 878.2,20.1 C883,20.1 887.2,21.2 890.8,23.3 C894.3,25.5 897.1,28.4 899,32.2 C900.9,36 901.9,40.3 901.9,45.2 C901.9,46.2 901.8,47 901.6,47.7 L862.7,47.7 C862.9,51.4 863.8,54.6 865.4,57.2 C867,59.8 869.1,61.7 871.5,63 C874,64.3 876.6,64.9 879.3,64.9 C885.6,64.9 890.5,61.9 893.9,56 L900.9,59.4 C898.8,63.4 895.9,66.5 892.3,68.9 C888.7,71.2 884.3,72.4 879.1,72.4 C874.1,72.4 869.8,71.3 866.1,69.1 Z M893,41 C892.9,38.9 892.3,36.9 891.3,34.8 C890.3,32.7 888.6,31 886.4,29.6 C884.2,28.2 881.4,27.5 878,27.5 C874.1,27.5 870.9,28.7 868.2,31.2 C865.5,33.7 863.8,36.9 862.9,41 L893,41 Z" id="Shape"></path>
            <path d="M911.2,21.6 L919,21.6 L919,28.8 L919.4,28.8 C920.8,26.4 922.9,24.3 925.9,22.6 C928.9,20.9 932,20 935.4,20 C941.3,20 945.9,21.7 949,25.2 C952.1,28.6 953.7,33.3 953.7,39.3 L953.7,70.9 L945.5,70.9 L945.5,40.6 C945.5,36 944.4,32.7 942.2,30.6 C940,28.5 937,27.5 933.2,27.5 C930.6,27.5 928.2,28.2 926.1,29.7 C924,31.2 922.4,33.1 921.2,35.5 C920,37.9 919.5,40.4 919.5,43.1 L919.5,70.8 L911.3,70.8 L911.3,21.6 L911.2,21.6 Z" id="Path"></path>
            <path d="M976.4,71.5 C974.7,70.8 973.3,70 972.1,68.8 C970.8,67.6 969.8,66.1 969.2,64.5 C968.6,62.9 968.2,60.9 968.2,58.5 L968.2,29.1 L959.6,29.1 L959.6,21.7 L968.2,21.7 L968.2,7.7 L976.4,7.7 L976.4,21.6 L988.4,21.6 L988.4,29 L976.4,29 L976.4,56.5 C976.4,59.3 976.9,61.3 977.9,62.6 C979.1,64 980.9,64.8 983.2,64.8 C985.1,64.8 986.9,64.3 988.6,63.2 L988.6,71.2 C987.6,71.6 986.7,72 985.7,72.2 C984.7,72.4 983.4,72.5 981.9,72.5 C979.9,72.4 978.1,72.1 976.4,71.5 Z" id="Path"></path>
            <path d="M1035.7,69.9 C1032.7,68.2 1030.5,66.1 1029,63.7 L1028.6,63.7 L1028.6,70.9 L1020.8,70.9 L1020.8,1.7 L1029,1.7 L1029,22.1 L1028.6,29 L1029,29 C1030.5,26.5 1032.7,24.4 1035.7,22.7 C1038.7,21 1042.1,20.1 1045.8,20.1 C1050.2,20.1 1054.2,21.2 1057.8,23.5 C1061.4,25.8 1064.2,28.9 1066.3,32.9 C1068.4,36.9 1069.4,41.4 1069.4,46.3 C1069.4,51.3 1068.4,55.8 1066.3,59.8 C1064.2,63.8 1061.4,66.9 1057.8,69.1 C1054.2,71.4 1050.2,72.5 1045.8,72.5 C1042.1,72.4 1038.7,71.6 1035.7,69.9 Z M1052.9,62.7 C1055.4,61.2 1057.4,58.9 1058.9,56.1 C1060.4,53.2 1061.2,50 1061.2,46.3 C1061.2,42.6 1060.4,39.4 1058.9,36.5 C1057.4,33.6 1055.4,31.4 1052.9,29.9 C1050.4,28.4 1047.7,27.6 1044.9,27.6 C1042.1,27.6 1039.4,28.4 1036.9,29.9 C1034.4,31.4 1032.4,33.6 1030.9,36.5 C1029.4,39.3 1028.7,42.6 1028.7,46.4 C1028.7,50.1 1029.4,53.4 1030.9,56.3 C1032.4,59.1 1034.4,61.3 1036.9,62.9 C1039.4,64.4 1042.1,65.2 1044.9,65.2 C1047.7,65 1050.4,64.2 1052.9,62.7 Z" id="Shape"></path>
            <polygon id="Path" points="1092.1 67.8 1071.7 21.6 1080.6 21.6 1096.1 58.2 1096.3 58.2 1111.2 21.6 1120.1 21.6 1089.7 91.7 1081.2 91.7"></polygon>
        </g>
        <circle id="Oval" fill="#444444" cx="238.5" cy="167.5" r="55.5"></circle>
    </g>
</svg>