<?xml version="1.0" encoding="utf-8"?>
<!-- Generator: Adobe Illustrator 18.0.0, SVG Export Plug-In . SVG Version: 6.00 Build 0)  -->
<!DOCTYPE svg PUBLIC "-//W3C//DTD SVG 1.1//EN" "http://www.w3.org/Graphics/SVG/1.1/DTD/svg11.dtd">
<svg version="1.1" xmlns="http://www.w3.org/2000/svg" xmlns:xlink="http://www.w3.org/1999/xlink" x="0px" y="0px"
	 viewBox="0 621.2 1728 1728" enable-background="new 0 621.2 1728 1728" xml:space="preserve">
<g id="cloud-assets" display="none">
	<path display="inline" opacity="0.5" fill="#607D8B" enable-background="new    " d="M1372.1,946.1H371.3
		c-61.6,0-111.2,49.6-111.2,111.2v667.2c0,61.6,49.6,111.2,111.2,111.2h388.4V1947H650.1v111.2H1095V1947H983.8v-111.2h388.4
		c61.6,0,111.2-49.6,111.2-111.2v-667.2C1483.3,997.5,1433.7,946.1,1372.1,946.1z M1372.1,1724.6H371.3v-667.2h1000.9V1724.6z"/>
</g>
<g id="cloud-backup" display="none">
	<path display="inline" opacity="0.5" fill="#607D8B" enable-background="new    " d="M927.8,1059.2c-229.3,0-414,184.8-414,414
		H375.2L560,1656.3l184.8-184.8H606.2c0-177.9,143.7-321.6,321.6-321.6s321.6,143.7,321.6,321.6s-143.7,321.6-321.6,321.6
		c-70.1,0-133.4-22.2-186.5-59.9l-65,66.7c70.1,53,157.4,85.5,251.5,85.5c229.3,0,414-184.8,414-414S1155.4,1059.2,927.8,1059.2z"/>
</g>
<g id="cloud-database-backup" display="none">
	<path display="inline" opacity="0.5" fill="#607D8B" d="M1470.2,874.4H246.9l0,0V2096l0,0h1223.3l0,0V874.4L1470.2,874.4z
		 M927.8,1885.6c-94.1,0-181.4-32.5-251.5-85.5l65-66.7c53,37.6,116.3,59.9,186.5,59.9c177.9,0,321.6-143.7,321.6-321.6
		s-143.7-321.6-321.6-321.6s-321.6,143.7-321.6,321.6h138.6L560,1656.3l-184.8-183.1h138.6c0-229.3,184.8-414,414-414
		c227.5,0,414,183.1,414,412.3S1157.1,1885.6,927.8,1885.6z"/>
</g>
<g id="cloud-database" display="none">
	<g display="inline" opacity="0.5">
		<g>
			<path id="SVGID_1_" fill="#607D8B" d="M926.1,1553.6h203.6v203.6H926.1V1553.6z M926.1,1214.9h203.6v203.6H926.1V1214.9z
				 M587.4,1553.6H791v203.6H587.4V1553.6z M587.4,1214.9H791v203.6H587.4V1214.9z M450.5,1079.7v814.4h814.4v-814.4H450.5z
				 M246.9,874.4h1223.3V2096H246.9V874.4z"/>
		</g>
	</g>
</g>
<g id="cloud-local" display="none">
	<g display="inline" opacity="0.5">
		<g>
			<path id="SVGID_2_" opacity="0.59" fill="#607D8B" enable-background="new    " d="M859.6,1417.6c-37.6,0-68.4-30.8-68.4-68.4
				s30.8-68.4,68.4-68.4c37.6,0,68.4,30.8,68.4,68.4S897.2,1417.6,859.6,1417.6z M587.5,1893.2c0,37.6,30.8,68.4,68.4,68.4h408.9
				c37.6,0,68.4-30.8,68.4-68.4s-30.8-68.4-68.4-68.4H656C618.3,1824.8,587.5,1855.6,587.5,1893.2z M859.6,1689.6
				c188.2,0,340.5-152.3,340.5-340.5s-152.3-340.5-340.5-340.5S519.1,1161,519.1,1349.2S671.4,1689.6,859.6,1689.6z M383.9,1008.7
				c0-75.3,61.6-135.2,136.9-135.2H1200c75.3,0,136.9,59.9,136.9,135.2v953c0,75.3-61.6,135.2-136.9,135.2H519.1
				c-75.3,0-136.9-59.9-136.9-135.2v-953H383.9z"/>
		</g>
		<g>
			<g opacity="0.5">
				<defs>
					<path id="SVGID_8_" opacity="0.5" d="M859.6,1417.6c-37.6,0-68.4-30.8-68.4-68.4s30.8-68.4,68.4-68.4
						c37.6,0,68.4,30.8,68.4,68.4S897.2,1417.6,859.6,1417.6z M587.5,1893.2c0,37.6,30.8,68.4,68.4,68.4h408.9
						c37.6,0,68.4-30.8,68.4-68.4s-30.8-68.4-68.4-68.4H656C618.3,1824.8,587.5,1855.6,587.5,1893.2z M859.6,1689.6
						c188.2,0,340.5-152.3,340.5-340.5s-152.3-340.5-340.5-340.5S519.1,1161,519.1,1349.2S671.4,1689.6,859.6,1689.6z M383.9,1008.7
						c0-75.3,61.6-135.2,136.9-135.2H1200c75.3,0,136.9,59.9,136.9,135.2v953c0,75.3-61.6,135.2-136.9,135.2H519.1
						c-75.3,0-136.9-59.9-136.9-135.2v-953H383.9z"/>
				</defs>
				<clipPath id="SVGID_9_">
					<use xlink:href="#SVGID_8_"  overflow="visible"/>
				</clipPath>
				<g clip-path="url(#SVGID_9_)">
					<g>
						<rect id="SVGID_3_" x="43.5" y="669.9" fill="#607D8B" width="1630.5" height="1630.5"/>
					</g>
					<g opacity="0.59" enable-background="new    ">
						<g>
							<defs>
								<rect id="SVGID_10_" x="43.5" y="669.9" width="1630.5" height="1630.5"/>
							</defs>
							<clipPath id="SVGID_11_">
								<use xlink:href="#SVGID_10_"  overflow="visible"/>
							</clipPath>
							<rect x="43.5" y="533.1" clip-path="url(#SVGID_11_)" fill="#607D8B" width="1630.5" height="1902.5"/>
						</g>
					</g>
				</g>
			</g>
		</g>
	</g>
</g>
<g id="cloud-media-backup" display="none">
	<g display="inline">
		<path opacity="0.5" fill="#607D8B" d="M624.5,1472 M959.8,1543.9l-123.2,71.9V1472v-143.7l123.2,71.9L1083,1472L959.8,1543.9z"/>
		<path opacity="0.5" fill="#607D8B" enable-background="new    " d="M927.8,1059.2c-229.3,0-414,184.8-414,414H375.2L560,1656.3
			l184.8-184.8H606.2c0-177.9,143.7-321.6,321.6-321.6s321.6,143.7,321.6,321.6s-143.7,321.6-321.6,321.6
			c-70.1,0-133.4-22.2-186.5-59.9l-65,66.7c70.1,53,157.4,85.5,251.5,85.5c229.3,0,414-184.8,414-414S1155.4,1059.2,927.8,1059.2z"
			/>
	</g>
</g>
<g id="cloud-playbook" display="none">
	<path display="inline" opacity="0.5" fill="#607D8B" stroke="#FFFFFF" stroke-miterlimit="10" enable-background="new    " d="
		M1269.3,808.2H457c-74.5,0-135.4,60.9-135.4,135.4v1083.2c0,74.5,60.9,135.4,135.4,135.4h812.4c74.5,0,135.4-60.9,135.4-135.4
		V943.6C1404.7,869.1,1343.8,808.2,1269.3,808.2z M457,943.6h338.5v541.6l-169.3-101.6L457,1485.2V943.6z"/>
</g>
<g id="cloud-replica-set" display="none">
	<polygon display="inline" opacity="0.5" fill="#607D8B" enable-background="new    " points="1338.8,1145.6 1338.8,1961.7 
		524.4,1961.7 524.4,2096.8 1475.6,2096.8 1475.6,1145.6 	"/>
	<path display="inline" opacity="0.5" fill="#607D8B" enable-background="new    " d="M1203.6,873.5H252.4v951.3h951.3L1203.6,873.5
		L1203.6,873.5z M659.5,1621.2H456v-203.6h203.6V1621.2z M659.5,1282.4H456v-203.6h203.6V1282.4z M1000,1621.2H796.4v-203.6H1000
		V1621.2z M1000,1282.4H796.4v-203.6H1000V1282.4z"/>
</g>
<g id="cloud-security" display="none">
	<g display="inline" opacity="0.5">
		<g>
			<path id="SVGID_7_" opacity="0.5" fill="#607D8B" enable-background="new    " d="M863.1,1487.6h398.4
				c-30.2,234.5-186.7,443.3-398.4,508.8v-508.2H464.8v-324.4l398.4-177L863.1,1487.6L863.1,1487.6z M863.1,862.2L351,1089.8v341.5
				c0,315.8,218.5,611.2,512.2,682.9c293.7-71.7,512.2-367.1,512.2-682.9v-341.5L863.1,862.2z"/>
		</g>
		<g>
			<defs>
				<path id="SVGID_12_" d="M863.1,1487.6h398.4c-30.2,234.5-186.7,443.3-398.4,508.8v-508.2H464.8v-324.4l398.4-177L863.1,1487.6
					L863.1,1487.6z M863.1,862.2L351,1089.8v341.5c0,315.8,218.5,611.2,512.2,682.9c293.7-71.7,512.2-367.1,512.2-682.9v-341.5
					L863.1,862.2z"/>
			</defs>
			<clipPath id="SVGID_13_">
				<use xlink:href="#SVGID_12_"  overflow="visible"/>
			</clipPath>
			<g opacity="0.5" clip-path="url(#SVGID_13_)" enable-background="new    ">
				<g>
					<rect id="SVGID_6_" x="180.2" y="805.3" fill="#607D8B" width="1365.8" height="1365.8"/>
				</g>
				<g>
					<defs>
						<rect id="SVGID_14_" x="180.2" y="805.3" width="1365.8" height="1365.8"/>
					</defs>
					<clipPath id="SVGID_15_">
						<use xlink:href="#SVGID_14_"  overflow="visible"/>
					</clipPath>
					
						<rect x="66.4" y="577.6" clip-path="url(#SVGID_15_)" fill="#607D8B" stroke="#FFFFFF" stroke-miterlimit="10" width="1593.5" height="1821.1"/>
					<g clip-path="url(#SVGID_15_)">
						
							<rect id="SVGID_5_" x="180.2" y="805.3" fill="none" stroke="#FFFFFF" stroke-miterlimit="10" width="1365.8" height="1365.8"/>
					</g>
				</g>
				<g>
					<path id="SVGID_4_" opacity="0.5" fill="none" stroke="#FFFFFF" stroke-miterlimit="10" enable-background="new    " d="
						M863.1,1487.6h398.4c-30.2,234.5-186.7,443.3-398.4,508.8v-508.2H464.8v-324.4l398.4-177L863.1,1487.6L863.1,1487.6z
						 M863.1,862.2L351,1089.8v341.5c0,315.8,218.5,611.2,512.2,682.9c293.7-71.7,512.2-367.1,512.2-682.9v-341.5L863.1,862.2z"/>
				</g>
			</g>
		</g>
	</g>
</g>
<g id="cloud-VM" display="none">
	<g display="inline" opacity="0.5">
		<rect x="120.9" y="858.7" fill="none" width="1474.8" height="609.1"/>
		<path fill="#607D8B" d="M1614.5,1486.5H103.8V843.3h1507.3L1614.5,1486.5L1614.5,1486.5z M138,1452.3h1440.6V875.8H138V1452.3z"/>
		<rect x="120.9" y="1565.2" fill="none" width="1474.8" height="557.8"/>
		<path fill="#607D8B" d="M1614.5,2141.8H103.8v-593.7h1507.3L1614.5,2141.8L1614.5,2141.8z M138,2107.6h1440.6v-527H138V2107.6z"/>
		<rect x="1020.8" y="1014.3" fill="#607D8B" width="290.9" height="456.8"/>
		<rect x="688.9" y="1209.4" fill="#607D8B" width="290.9" height="261.8"/>
		<polygon fill="#607D8B" points="695.8,2102.5 576,1837.3 509.3,2018.6 439.1,1970.7 321.1,2011.8 250.9,1933.1 175.6,2006.7 
			153.4,1981 254.3,1885.2 331.3,1974.2 444.3,1933.1 492.2,1967.3 572.6,1748.3 700.9,2034 880.5,1772.3 1043.1,1845.8 
			1186.8,1772.3 1280.9,1900.6 1489.6,1618.3 1517,1637.1 1282.6,1957 1178.2,1815 1043.1,1883.5 890.8,1813.3 		"/>
		<rect x="358.7" y="1413" fill="#607D8B" width="290.9" height="56.5"/>
		<circle fill="#607D8B" cx="1493" cy="1649.1" r="51.3"/>
	</g>
</g>
<g id="page-data-entry">
	<g opacity="0.5">
		<g>
			<rect x="200.2" y="957.4" fill="#FFFFFF" width="1310.7" height="733.6"/>
			<path fill="#607D8B" d="M1528,1706.4H183.1V940.3H1528V1706.4L1528,1706.4z M217.3,1672.2h1276.5V974.5H217.3V1672.2z"/>
		</g>
		<rect x="200.2" y="1816.2" fill="#607D8B" width="564.6" height="213.9"/>
		<g>
			<polygon fill="#607D8B" points="345.6,1590.2 275.5,1590.2 275.5,1556 330.2,1556 355.9,1532.1 355.9,1111.2 335.3,1092.4 
				273.7,1092.4 273.7,1058.1 349,1058.1 390.1,1097.5 390.1,1545.7 			"/>
			<polygon fill="#607D8B" points="480.8,1590.2 410.6,1590.2 366.1,1545.7 366.1,1097.5 407.2,1058.1 482.5,1058.1 482.5,1092.4 
				420.9,1092.4 400.3,1111.2 400.3,1532.1 426,1556 480.8,1556 			"/>
		</g>
	</g>
</g>
</svg>
